<?xml version="1.0" encoding="UTF-8" standalone="no"?>
<svg version="1.1" xmlns="http://www.w3.org/2000/svg" xmlns:xlink="http://www.w3.org/1999/xlink" width="1200" height="500">
<defs><!--
	SCALE X: 1 Year = 25px
	SCALE Y: 1 % = 16px
	Xo = 60px (+12)
	Yo = 450px
	CALCULATIONS: Y(GDP%) = 450 - GDP * 16;	-->
	<style type="text/css">
	<![CDATA[
	text {font-family:'DejaVu Sans','lucida sans unicode',Verdana; font-size:14px; }
	.txt {font-size:17px;}
	.title {font-size:28px; text-anchor:middle;}
	.us {font-size:28px; text-anchor:middle; fill:blue;}
	.cn {font-size:28px; text-anchor:middle; fill:red;}
	.lnk {font-size:28px; fill:blue;}

	#c80us,#c85us,#c90us,#c95us,#c00us,#c05us,#c10us,#c15us,#c20us,#c23us { fill:white; stroke:blue; stroke-width:2px;}
	#r80us,#r85us,#r90us,#r95us,#r00us,#r05us,#r10us,#r15us,#r20us,#r23us { fill:white; stroke:#ccc; stroke-width:1px; rx:3px; ry:3px;}
	#t80us,#t85us,#t90us,#t95us,#t00us,#t05us,#t10us,#t15us,#t20us,#t23us { text-anchor:middle;}

	#c80cn,#c85cn,#c90cn,#c95cn,#c00cn,#c05cn,#c10cn,#c15cn,#c20cn,#c23cn { fill:white; stroke:red; stroke-width:2px;}
	#r80cn,#r85cn,#r90cn,#r95cn,#r00cn,#r05cn,#r10cn,#r15cn,#r20cn,#r23cn { fill:white; stroke:#ccc; stroke-width:1px; rx:3px; ry:3px;}
	#t80cn,#t85cn,#t90cn,#t95cn,#t00cn,#t05cn,#t10cn,#t15cn,#t20cn,#t23cn { text-anchor:middle;}
	]]>
	</style>
</defs>
<rect width="100%" height="100%" fill="#fff"/>
<g transform="translate(60,50)">
<defs>
	<pattern id="grid" width="50" height="400" patternUnits="userSpaceOnUse">
		<rect x="0" y="0" width="25" height="400" fill="#f4f4f4"/>
	</pattern>
</defs>
<rect x="0" y="0" width="1150" height="400" fill="url(#grid)"/>

<g style="fill:#444; font-size:18px; text-anchor:middle">
	<text class="txt" x="12"  y="424">80</text>
	<text class="txt" x="62"  y="424">82</text>
	<text class="txt" x="112" y="424">84</text>
	<text class="txt" x="162" y="424">86</text>
	<text class="txt" x="212" y="424">88</text>
	<text class="txt" x="262" y="424">90</text>
	<text class="txt" x="312" y="424">92</text>
	<text class="txt" x="362" y="424">94</text>
	<text class="txt" x="412" y="424">96</text>
	<text class="txt" x="462" y="424">98</text>
	<text class="txt" x="512" y="424">00</text>
	<text class="txt" x="562" y="424">02</text>
	<text class="txt" x="612" y="424">04</text>
	<text class="txt" x="662" y="424">06</text>
	<text class="txt" x="712" y="424">08</text>
	<text class="txt" x="762" y="424">10</text>
	<text class="txt" x="812" y="424">12</text>
	<text class="txt" x="862" y="424">14</text>
	<text class="txt" x="912" y="424">16</text>
	<text class="txt" x="962" y="424">18</text>
	<text class="txt" x="1012" y="424">20</text>
	<text class="txt" x="1062" y="424">22</text>
	<text class="txt" x="1112" y="424">24</text>
</g>
</g>

<g style="stroke:#bbb;">
	<line x1="60" y1="50.5" x2="1185" y2="50.5" stroke-dasharray="10"/>
	<line x1="60" y1="130.5" x2="1185" y2="130.5" stroke-dasharray="10"/>
	<line x1="60" y1="210.5" x2="1185" y2="210.5" stroke-dasharray="10"/>
	<line x1="60" y1="290.5" x2="1185" y2="290.5" stroke-dasharray="10"/>
	<line x1="60" y1="370.5" x2="1185" y2="370.5" stroke-dasharray="10"/>
	<line x1="60" y1="450.5" x2="1185" y2="450.5"/>
</g>
<g style="fill:#444; font-size:18px; text-anchor:end">
	<text class="txt" x="47" y="56">25%</text>
	<text class="txt" x="47" y="136">20%</text>
	<text class="txt" x="47" y="216">15%</text>
	<text class="txt" x="47" y="296">10%</text>
	<text class="txt" x="47" y="376">5%</text>
	<text class="txt" x="47" y="456">0</text>
</g>
<!--                                                               80      81      82      83      84       85       86       87       88       89       90       91       92       93       94       95       96       97       98       99       2000     01       02       03       04       05       06       07       08       09       2010     11       12       13       14       15       16       17       18       19       20        21        22        23 -->
<g transform="translate(72,0)">                      <!-- USA     21,305  21,393  20,926  21,370  21,946   22,070   22,071   22,001   21,926   21,926   21,473   20,938   19,512   19,665   19,870   19,681   19,663   19,738   20,064   20,318   20,180   19,887   19,675   19,436   19,170   18,950   18,508   17,928   17,438   17,063   16,650   16,276   16,105   15,939   16,025   16,309   16,142   15,984   15,892   15,846   15,957    15,867    15,648    15,563-->
	<path fill="none" stroke-width="3.5" stroke="blue" d="M-12 108 L0 109  L25 108 L50 115 L75 108 L100 99  L125 97  L150 97  L175 98  L200 99  L225 99  L250 106 L275 115 L300 138 L325 135 L350 132 L375 135 L400 135 L425 134 L450 129 L475 125 L500 127 L525 132 L550 135 L575 139 L600 143 L625 147 L650 154 L675 163 L700 171 L725 177 L750 184 L775 190 L800 192 L825 195 L850 194 L875 189 L900 192 L925 194 L950 196 L975 196 L1000 195 L1025 196 L1050 200 L1075 201"/>
													              <!-- China    2,258   2,324   2,523   2,729   3,011    3,300    3,473    3,738    3,976    3,997    3,991    4,246    4,368    4,879    5,356    5,734    6,068    6,371    6,685    6,957    7,201    7,614    8,082    8,545    8,937    9,509   10,184   11,049   11,764   12,932   13,591   14,331   14,998   15,370   15,654   15,939   16,053   16,148   16,645   17,161   18,069    18,418    18,351    18,734-->
	<path fill="none" stroke-width="3.5" stroke="red"  d="M-12 414 L0 414  L25 413 L50 410 L75 406 L100 402 L125 397 L150 394 L175 390 L200 386 L225 386 L250 386 L275 382 L300 380 L325 372 L350 364 L375 358 L400 353 L425 348 L450 343 L475 339 L500 335 L525 328 L550 321 L575 313 L600 307 L625 298 L650 287 L675 273 L700 262 L725 243 L750 233 L775 221 L800 210 L825 204 L850 200 L875 195 L900 193 L925 192 L950 184 L975 175 L1000 161 L1025 155 L1050 156 L1075 150"/>
</g>
<switch>
	<g systemLanguage="de">
		<text x="550" y="33" class="title">Anteil am weltweiten kaufkraftbereinigten BIP USA und China</text>
		<text x="450" y="168" class="us">USA</text>
		<text x="450" y="317" class="cn">China</text>
	</g>
	<g systemLanguage="ru">
		<text x="550" y="33" class="title">Доля ВВП по ППС США и Китая в мире</text>
		<text x="450" y="168" class="us">США</text>
		<text x="450" y="317" class="cn">Китай</text>
	</g>
	<g>
		<text x="550" y="33" class="title">GDP based on PPP of China and the USA, share of world total</text>		
		<text x="450" y="168" class="us">USA</text>
		<text x="450" y="317" class="cn">China</text>
	</g>
</switch>
<g transform="translate(950, 418)">
	<a xlink:href="https://www.imf.org/en/Publications/WEO/Issues/2023/04/11/world-economic-outlook-april-2023" xlink:title="www.imf.org" xlink:show="new">
	<switch>
		<text class="lnk" systemLanguage="de">Quelle: IWF</text>
		<text class="lnk" systemLanguage="ru">Источник: МВФ</text>
		<text class="lnk">Source: IMF</text>
	</switch>
	</a>
</g>
<g transform="translate(72,0)">									<!-- x-20,5   y-30														            y+15 -->
	<circle id="c80us" cx="0"  cy="109"  r="3"/><rect id="r80us" x="-20.5" y="80" width="42" height="21"/><text id="t80us" x="0" y="95">21,3</text>
	<circle id="c85us" cx="125" cy="97"  r="3"/><rect id="r85us" x="105.5" y="66" width="42" height="21"/><text id="t85us" x="125" y="81">22,1</text>
	<circle id="c90us" cx="250" cy="106" r="3"/><rect id="r90us" x="229.5" y="75" width="42" height="21"/><text id="t90us" x="250" y="90">21,5</text>
	<circle id="c95us" cx="375" cy="135" r="3"/><rect id="r95us" x="354.5" y="104" width="42" height="21"/><text id="t95us" x="375" y="119">19,7</text>
	<circle id="c00us" cx="500" cy="127" r="3"/><rect id="r00us" x="479.5" y="95"  width="42" height="21"/><text id="t00us" x="500" y="110">20,2</text>
	<circle id="c05us" cx="625" cy="147" r="3"/><rect id="r05us" x="604.5" y="115" width="42" height="21"/><text id="t05us" x="625" y="130">19,0</text>
	<circle id="c10us" cx="750" cy="184" r="3"/><rect id="r10us" x="729.5" y="153" width="42" height="21"/><text id="t10us" x="750" y="168">16,6</text>
	<circle id="c15us" cx="875" cy="189" r="3"/><rect id="r15us" x="854.5" y="160" width="42" height="21"/><text id="t15us" x="875" y="175">16,3</text>
 	<circle id="c20us" cx="1000" cy="195" r="3"/><rect id="r20us" x="979.5" y="207" width="42" height="21"/><text id="t20us" x="1000" y="221">16,0</text>
 	<circle id="c23us" cx="1075" cy="201" r="3"/><rect id="r23us" x="1054.5" y="211" width="42" height="21"/><text id="t23us" x="1075" y="226">15,6</text>

	<circle id="c80cn" cx="0" cy="414" r="3"/><rect   id="r80cn" x="-20.5" y="384" width="42" height="21"/><text id="t80cn" x="0" y="399">2,3</text>   <!-- 1980 -->
	<circle id="c85cn" cx="125" cy="397" r="3"/><rect id="r85cn" x="105.5" y="367" width="42" height="21"/><text id="t85cn" x="125" y="382">3,3</text> <!-- 1985 -->
	<circle id="c90cn" cx="250" cy="386" r="3"/><rect id="r90cn" x="229.5" y="356" width="42" height="21"/><text id="t90cn" x="250" y="371">4,0</text> <!-- 1990 -->
	<circle id="c95cn" cx="375" cy="358" r="3"/><rect id="r95cn" x="354.5" y="328" width="42" height="21"/><text id="t95cn" x="375" y="343">5,7</text> <!-- 1995 -->
	<circle id="c00cn" cx="500" cy="335" r="3"/><rect id="r00cn" x="479.5" y="305" width="42" height="21"/><text id="t00cn" x="500" y="320">7,2</text> <!-- 2000 -->
	<circle id="c05cn" cx="625" cy="298" r="3"/><rect id="r05cn" x="604.5" y="268" width="42" height="21"/><text id="t05cn" x="625" y="283">9,5</text> <!-- 2005 -->
	<circle id="c10cn" cx="750" cy="233" r="3"/><rect id="r10cn" x="729.5" y="203" width="42" height="21"/><text id="t10cn" x="750" y="218">13,6</text><!-- 2010 -->
	<circle id="c15cn" cx="875" cy="195" r="3"/><rect id="r15cn" x="854.5" y="205" width="42" height="21"/><text id="t15cn" x="875" y="220">15,9</text><!-- 2015 -->
	<circle id="c20cn" cx="1000" cy="161" r="3"/><rect id="r20cn" x="979.5" y="131" width="42" height="21"/><text id="t20cn" x="1000" y="146">18,1</text><!-- 2020 -->
	<circle id="c23cn" cx="1075" cy="150" r="3"/><rect id="r23cn" x="1054.5" y="120" width="42" height="21"/><text id="t23cn" x="1075" y="135">18,7</text><!-- 2023 -->
</g>
</svg>